#!OML:ASF H:\Terrain\Patient Classification 1\Walking\liu\liu.ASF
:FULLY-SPECIFIED
:DEGREES
1
root 7.465930 15.993700 -36.732101 7.113560 1.314870 -3.667760
lowerback -4.729032 0.208344 1.033341
upperback -1.670746 0.203707 2.812722
thorax 0.929600 0.105636 2.317755
lowerneck -20.523691 -5.691554 -14.671360
upperneck 15.047670 -7.294178 18.615959
head 9.228934 -2.510112 7.887308
rclavicle 0.000000 0.000000
rhumerus -42.645679 19.200609 -92.513412
rradius 61.818790
rwrist -31.426559
rhand -36.521652 -28.326431
rfingers 7.837522
rthumb -7.049570 -61.197842
lclavicle 0.000000 0.000000
lhumerus -39.519371 -3.276405 94.879845
lradius 30.146160
lwrist 8.036127
lhand -14.630330 -25.323210
lfingers 7.837522
lthumb 14.084180 7.222864
rfemur -10.887812 5.199249 33.120892
rtibia 26.531782
rfoot 0.000000 0.000000
rtoes 0.000000
lfemur -44.758671 7.064838 -17.986761
ltibia 48.301659
lfoot -16.080460 9.181337
ltoes -13.033569
2
root 7.469790 15.990900 -36.609901 6.973640 1.176770 -3.427690
lowerback -4.432417 0.137189 0.755279
upperback -1.917751 0.134713 2.650351
thorax 0.512413 0.072979 2.301585
lowerneck -20.140121 -5.441833 -14.152600
upperneck 15.378880 -7.100588 18.257912
head 9.202941 -2.434465 7.702487
rclavicle 0.000000 0.000000
rhumerus -43.225822 19.208309 -92.938560
rradius 62.609474
rwrist -32.761959
rhand -35.759792 -29.374622
rfingers 7.837522
rthumb -6.314110 -62.267040
lclavicle 0.000000 0.000000
lhumerus -40.274849 -3.361688 94.821762
lradius 30.365499
lwrist 8.113490
lhand -14.577971 -26.045580
lfingers 7.837522
lthumb 14.134561 6.497392
rfemur -10.015754 5.492641 32.875370
rtibia 26.172190
rfoot 0.000000 0.000000
rtoes 0.000000
lfemur -44.694542 6.561379 -18.060461
ltibia 45.941608
lfoot -15.883560 8.574082
ltoes -12.816540
3
root 7.468650 15.981700 -36.492199 7.074960 1.020620 -3.421040
lowerback -4.677948 0.229340 0.587553
upperback -1.944613 0.259248 2.679094
thorax 0.617147 0.135910 2.432243
lowerneck -20.334381 -5.416829 -13.838441
upperneck 15.901930 -7.158272 18.074100
head 9.401942 -2.445069 7.590385
rclavicle -0.000000 0.000000
rhumerus -43.302490 19.088522 -92.906326
rradius 63.387501
rwrist -34.267200
rhand -34.608749 -30.001289
rfingers 7.837522
rthumb -5.202692 -62.921211
lclavicle -0.000000 0.000000
lhumerus -40.214348 -3.365461 94.985771
lradius 30.126581
lwrist 7.747498
lhand -14.137860 -26.279881
lfingers 7.837522
lthumb 14.558830 6.235944
rfemur -9.276356 5.893910 32.917061
rtibia 25.590401
rfoot 0.000000 0.000000
rtoes 0.000000
lfemur -45.075691 6.216353 -17.852121
ltibia 43.896164
lfoot -15.869261 7.943298
ltoes -12.187341
4
root 7.474180 15.976900 -36.368900 7.146040 0.803247 -3.687080
lowerback -5.077039 0.520814 0.902310
upperback -1.874587 0.622481 2.840497
thorax 0.900448 0.316170 2.443232
lowerneck -19.670200 -5.776848 -14.932500
upperneck 15.276250 -7.444998 18.484840
head 9.178642 -2.642002 7.870918
rclavicle 0.000000 0.000000
rhumerus -43.297871 18.914171 -92.542236
rradius 63.899662
rwrist -35.416924
rhand -34.667049 -30.362862
rfingers 7.837522
rthumb -5.258990 -63.281460
lclavicle 0.000000 0.000000
lhumerus -40.148571 -4.166129 95.859169
lradius 30.250000
lwrist 7.998617
lhand -13.096490 -25.782791
lfingers 7.837522
lthumb 15.562470 6.665373
rfemur -8.510656 5.962100 33.231659
rtibia 25.025110
rfoot 0.000000 0.000000
rtoes 0.000000
lfemur -45.316261 6.135866 -17.453150
ltibia 41.730259
lfoot -15.248530 8.013412
ltoes -12.123321
5
root 7.487920 15.976100 -36.236801 7.032030 0.509124 -3.741260
lowerback -5.274611 0.496117 0.972168
upperback -1.670119 0.574658 2.908675
thorax 1.222232 0.290796 2.475264
lowerneck -19.865341 -5.596360 -15.256340
upperneck 15.232250 -7.169283 18.958721
head 9.184418 -2.479906 8.140946
rclavicle 0.000000 0.000000
rhumerus -43.026829 19.462410 -92.684135
rradius 64.357155
rwrist -36.394821
rhand -34.752850 -31.670872
rfingers 7.837522
rthumb -5.341798 -64.587708
lclavicle 0.000000 0.000000
lhumerus -40.280682 -4.713577 96.453171
lradius 30.794390
lwrist 8.669320
lhand -12.945351 -24.848671
lfingers 7.837522
lthumb 15.708110 7.589263
rfemur -7.446329 5.937536 33.254101
rtibia 24.341570
rfoot 0.000000 0.000000
rtoes 0.000000
lfemur -45.197353 5.772987 -17.182550
ltibia 39.604511
lfoot -14.862870 8.349352
ltoes -11.794311
6
root 7.500650 15.977800 -36.101898 6.909560 0.143317 -3.598320
lowerback -5.348860 0.446618 0.861597
upperback -1.572538 0.510742 2.801238
thorax 1.366068 0.257931 2.424433
lowerneck -20.061802 -5.393102 -14.919300
upperneck 15.379210 -6.940076 18.803621
head 9.210333 -2.356409 8.061768
rclavicle 0.000000 -0.000000
rhumerus -43.014618 19.821011 -93.149101
rradius 64.871948
rwrist -37.211899
rhand -34.285568 -32.203598
rfingers 7.837522
rthumb -4.890688 -65.130341
lclavicle 0.000000 -0.000000
lhumerus -40.409931 -4.762692 96.498711
lradius 30.790981
lwrist 8.269723
lhand -13.228270 -25.162060
lfingers 7.837522
lthumb 15.435420 7.294881
rfemur -6.310315 5.946215 33.035091
rtibia 23.588840
rfoot 0.000000 0.000000
rtoes 0.000000
lfemur -44.972839 5.229774 -16.955841
ltibia 37.507584
lfoot -15.375140 8.598019
ltoes -11.660880
7
root 7.506240 15.988500 -35.973499 6.868540 -0.176380 -3.570520
lowerback -5.298183 0.370525 0.745961
upperback -1.602821 0.418055 2.704141
thorax 1.309616 0.211598 2.383304
lowerneck -20.188959 -5.280715 -14.148090
upperneck 15.534531 -6.896131 18.286510
head 9.230045 -2.331417 7.746497
rclavicle 0.000000 -0.000000
rhumerus -43.151352 20.116800 -93.764221
rradius 65.291931
rwrist -37.688862
rhand -34.328690 -32.321522
rfingers 7.837522
rthumb -4.932312 -65.247383
lclavicle 0.000000 -0.000000
lhumerus -40.633232 -4.675682 96.277397
lradius 30.769751
lwrist 7.707129
lhand -12.929840 -25.759911
lfingers 7.837522
lthumb 15.723070 6.676890
rfemur -5.326882 6.173882 32.981411
rtibia 22.904310
rfoot 0.000000 0.000000
rtoes 0.000000
lfemur -44.827641 4.789917 -16.575901
ltibia 35.357632
lfoot -15.523310 8.893270
ltoes -13.495570
8
root 7.507640 15.985700 -35.845901 6.916550 -0.470328 -3.664150
lowerback -5.358320 0.380993 0.677083
upperback -1.649692 0.434971 2.708970
thorax 1.293974 0.220205 2.428272
lowerneck -20.735771 -5.302561 -13.703470
upperneck 16.214991 -7.028428 18.051771
head 9.551939 -2.357586 7.589153
rclavicle 0.000000 -0.000000
rhumerus -43.311844 20.213932 -94.156921
rradius 65.712021
rwrist -37.914692
rhand -34.886723 -33.780449
rfingers 7.837522
rthumb -5.471070 -66.694214
lclavicle 0.000000 -0.000000
lhumerus -41.231079 -5.505610 96.616631
lradius 31.501251
lwrist 8.293824
lhand -12.517670 -25.170092
lfingers 7.837522
lthumb 16.120171 7.238209
rfemur -4.402596 6.676054 33.112312
rtibia 22.092400
rfoot -23.260380 -3.842036
rtoes -10.653654
lfemur -44.817741 4.387119 -16.035141
ltibia 33.327141
lfoot -15.158551 9.020858
ltoes -13.898170
9
root 7.512880 15.967200 -35.713200 6.960610 -0.816342 -3.753460
lowerback -5.744519 0.497542 0.753595
upperback -1.497386 0.575111 2.650406
thorax 1.662518 0.288677 2.338391
lowerneck -21.449121 -5.476328 -13.262590
upperneck 16.865530 -7.296168 17.534109
head 9.904819 -2.467443 7.306563
rclavicle 0.000000 0.000000
rhumerus -43.220100 20.028801 -94.419380
rradius 66.129799
rwrist -38.093002
rhand -34.811699 -34.713470
rfingers 7.837522
rthumb -5.398657 -67.628990
lclavicle 0.000000 0.000000
lhumerus -41.437881 -6.577483 96.961922
lradius 31.905611
lwrist 8.764943
lhand -11.741400 -24.736361
lfingers 7.837522
lthumb 16.868061 7.616213
rfemur -3.425840 6.934037 33.209221
rtibia 21.155090
rfoot -23.195700 -3.629296
rtoes -9.811044
lfemur -44.804539 3.900710 -15.410010
ltibia 31.488270
lfoot -15.076160 9.208782
ltoes -13.747360
10
root 7.523710 15.965100 -35.577000 7.011740 -1.212660 -4.061600
lowerback -6.127408 0.576503 1.104840
upperback -1.376870 0.646763 2.730442
thorax 2.000603 0.324401 2.233935
lowerneck -21.661200 -5.533671 -12.911910
upperneck 16.964861 -7.341521 16.935051
head 9.944133 -2.515755 7.020761
rclavicle 0.000000 0.000000
rhumerus -43.235168 20.171911 -94.692955
rradius 66.562653
rwrist -38.242271
rhand -33.992752 -33.013420
rfingers 7.837522
rthumb -4.607934 -65.945770
lclavicle 0.000000 0.000000
lhumerus -41.293892 -6.635068 97.014938
lradius 31.502131
lwrist 8.186377
lhand -10.822020 -25.643530
lfingers 7.837522
lthumb 17.753450 6.639259
rfemur -2.391378 6.889883 33.481911
rtibia 20.176199
rfoot -23.008041 -3.136221
rtoes -9.737046
lfemur -44.760323 3.392477 -14.459061
ltibia 29.784920
lfoot -15.104100 9.826674
ltoes -14.382940
11
root 7.534380 15.968800 -35.442200 7.082810 -1.629890 -4.216410
lowerback -6.189898 0.640237 1.187560
upperback -1.496319 0.726109 2.838913
thorax 1.910029 0.364566 2.304709
lowerneck -21.571440 -5.432713 -12.601490
upperneck 17.001160 -7.219675 16.540482
head 9.892972 -2.481578 6.840867
rclavicle -0.000000 0.000000
rhumerus -43.626221 20.410501 -95.034943
rradius 66.965469
rwrist -38.374161
rhand -33.460461 -31.783510
rfingers 7.837522
rthumb -4.093914 -64.725433
lclavicle -0.000000 0.000000
lhumerus -41.858738 -6.913456 97.400711
lradius 31.740831
lwrist 7.975968
lhand -10.874104 -26.255571
lfingers 7.837522
lthumb 17.703291 6.031245
rfemur -1.260666 6.858885 33.558800
rtibia 18.979620
rfoot -22.769890 -2.890635
rtoes -10.689547
lfemur -44.776272 2.862431 -13.691810
ltibia 28.283201
lfoot -15.296380 10.602295
ltoes -13.943380
12
root 7.547570 15.960400 -35.309601 7.011430 -2.006710 -4.203420
lowerback -6.162992 0.729268 1.110956
upperback -1.481139 0.848711 2.870538
thorax 1.905684 0.425450 2.388749
lowerneck -21.462212 -5.399680 -12.133659
upperneck 16.880489 -7.183374 15.963201
head 9.785765 -2.498551 6.550401
rclavicle -0.000000 0.000000
rhumerus -43.875919 20.528530 -95.287178
rradius 67.318352
rwrist -38.455231
rhand -33.872082 -32.549332
rfingers 7.837522
rthumb -4.491312 -65.483994
lclavicle -0.000000 0.000000
lhumerus -42.560654 -7.540324 97.882729
lradius 32.483772
lwrist 8.153915
lhand -10.317824 -25.256990
lfingers 7.837522
lthumb 18.238880 6.985880
rfemur 0.058441 6.825764 33.483669
rtibia 17.675461
rfoot -22.609510 -2.712996
rtoes -10.244047
lfemur -44.760429 2.431275 -13.244330
ltibia 26.954950
lfoot -15.646510 11.358820
ltoes -14.780920
13
root 7.563150 15.957900 -35.172298 6.848580 -2.396170 -4.298300
lowerback -6.319478 0.818531 1.219768
upperback -1.263779 0.949325 2.924856
thorax 2.214476 0.474931 2.395943
lowerneck -21.751841 -5.464592 -12.769680
upperneck 17.176390 -7.271616 16.788860
head 10.009912 -2.482403 6.959931
rclavicle -0.000000 -0.000000
rhumerus -43.927513 20.705080 -95.508270
rradius 67.677612
rwrist -38.464142
rhand -34.324841 -32.672970
rfingers 7.837522
rthumb -4.928528 -65.598831
lclavicle -0.000000 -0.000000
lhumerus -42.748310 -7.527092 97.991081
lradius 32.766800
lwrist 7.765077
lhand -8.894766 -24.552000
lfingers 7.837522
lthumb 19.608490 7.571267
rfemur 1.399398 6.699693 33.524590
rtibia 16.600540
rfoot -22.654171 -2.239380
rtoes -7.804687
lfemur -44.527451 1.851025 -12.568820
ltibia 25.574451
lfoot -15.618239 12.391940
ltoes -16.044710
